<svg viewBox="0 0 71 71" xmlns="http://www.w3.org/2000/svg" xmlns:xlink="http://www.w3.org/1999/xlink">
  <style>
    @media (prefers-color-scheme: dark) {
      #Line,
      #Line-2 {
        stroke: #f9f9f9;
      }
      #saved-place-mark-day {
        fill: #dfa513;
        storke: #efdba7;
      }
    }
  </style>
    <g id="Page-1" stroke="none" stroke-width="1" fill="none" fill-rule="evenodd">
        <g id="Logo" transform="translate(1.000000, -2.500000)">
            <g id="Logo-icon-only" transform="translate(0.000000, 3.500000)">
                <g id="saved-place-mark-day" fill="#F6D410" fill-rule="nonzero" stroke="#463C01">
                    <path d="M36.7870561,20.5648504 L19.6580592,17.9477996 C19.6053264,17.9463473 19.5549089,17.9260322 19.5161332,17.8906122 C19.463278,17.8466715 19.4136855,17.7768835 19.3673556,17.6812481 C19.3482972,17.6416257 19.3309887,17.6012008 19.3154792,17.5600883 C19.3050386,17.5327399 19.2958932,17.5049236 19.2880728,17.4767304 C19.2378278,17.2925676 19.276001,17.1672076 19.4025924,17.1006505 C19.4217482,17.0906119 19.4417205,17.0821819 19.4622992,17.0754493 L30.5227372,10.7751416 C30.9795105,10.581286 31.6157304,10.9528426 32.4313969,11.8898114 C32.8364307,12.3581525 33.2157725,12.8476968 33.5677835,13.3563292 C33.9266768,13.8713389 34.2823074,14.4319048 34.6346753,15.0380267 C34.7003608,15.1513291 34.7652893,15.2650602 34.8294565,15.3792126 C35.6124963,16.7685112 36.2160896,17.9801088 36.6402362,19.0140055 C37.0004345,19.8921714 37.0901578,20.3971653 36.9094061,20.5289871 C36.8736814,20.5538712 36.8307027,20.5664691 36.7870561,20.5648504 Z M16.2322598,19.789428 L10.8488608,31.3238374 C10.6531008,31.7115486 9.93531425,31.7438579 8.69550113,31.4207652 C8.00309718,31.238149 7.32062642,31.0204205 6.6507883,30.768441 C6.00107595,30.5251218 5.36081632,30.2577359 4.73136184,29.966848 C3.60247937,29.4466688 2.61095515,28.9371516 1.75678917,28.4382965 C1.55553064,28.3209083 1.35615688,28.2003797 1.15874247,28.0767557 C0.212569309,27.4829114 -0.154154359,27.1158781 0.0585714698,26.9756558 C0.0661147141,26.9706618 0.0739598045,26.96613 0.0820626656,26.9620859 L15.3513399,19.2078611 C15.4071243,19.1513705 15.4839649,19.1201619 15.5637395,19.1215953 C15.6596619,19.1215953 15.7718976,19.158751 15.9004467,19.2330623 C15.9132887,19.2406255 15.9260146,19.2483806 15.9386198,19.256325 C16.1924553,19.4133481 16.2919666,19.5855565 16.2371538,19.7729502 C16.2356383,19.7784759 16.2340066,19.7839697 16.2322598,19.789428 L16.2322598,19.789428 Z M17.3089396,15.5246043 L14.7640601,3.11784457 C14.7606846,3.09018599 14.7590502,3.06234624 14.7591661,3.03448665 C14.7591661,2.56341749 15.2697733,2.1337042 16.2909878,1.74534677 C16.3202893,1.73419858 16.3496538,1.72321326 16.3790798,1.71239132 C16.9125113,1.51772126 17.4531962,1.34312609 17.9999723,1.18898114 C18.5598458,1.02937335 19.1575662,0.878489055 19.7931336,0.736328266 C20.0087312,0.688352235 20.2247272,0.642148388 20.441099,0.597721497 C20.9963101,0.482412795 21.554037,0.37932084 22.1138679,0.288521782 C22.9928302,0.147007179 23.789247,0.05621813 24.5031183,0.0161546351 C25.6450515,-0.0484639052 26.1507647,0.0807731753 26.0202581,0.403865877 L18.2877394,15.5246043 C18.2303165,15.6964896 18.0825177,15.7921251 17.8443431,15.8115106 C17.8127622,15.81409 17.7810876,15.8153835 17.7493995,15.8153877 C17.4668526,15.8153877 17.3203589,15.7252449 17.3099184,15.5449591 C17.3094021,15.5381845 17.3090757,15.5313969 17.3089396,15.5246043 Z M15.15558,17.2693049 L2.33330227,15.8153877 C2.16703414,15.7864894 2.02146105,15.6879115 1.93395194,15.5449591 C1.74210717,15.2703303 1.61943093,14.7905377 1.5659232,14.1055812 C1.55974772,14.0293984 1.55452705,13.9531426 1.5502624,13.8768315 C1.48500908,12.6490793 1.5502624,11.243626 1.74602237,9.66047177 C1.89414741,8.4637364 2.07000511,7.4146544 2.27359548,6.51322577 C2.33605807,6.23610327 2.40491836,5.96043299 2.48012224,5.68643154 C2.76266912,4.66093531 2.99986495,4.21829831 3.19170971,4.35852054 C3.19968921,4.36442024 3.20721414,4.3709 3.21422211,4.3779061 L15.4492199,16.3969546 C15.5797266,16.4615731 15.5960399,16.6392741 15.4981599,16.9300575 C15.4845621,16.97107 15.4692137,17.011493 15.4521563,17.0512173 C15.3699371,17.2399034 15.2772774,17.315184 15.1741772,17.2770591 C15.1678437,17.2748026 15.1616359,17.2722142 15.15558,17.2693049 L15.15558,17.2693049 Z M20.734739,36.8487226 L17.8962195,20.1771392 C17.8843889,20.1536733 17.8783506,20.1277622 17.8786011,20.1015355 C17.8786011,19.9897454 17.9826801,19.8498463 18.1908382,19.6818381 C18.2066792,19.6690568 18.2226673,19.6564553 18.2387994,19.6440362 C18.2742339,19.6165112 18.3104646,19.5900066 18.3474462,19.5645554 C18.5764854,19.4081786 18.7197164,19.3855621 18.7771393,19.496706 C18.7771429,19.4973521 18.7771429,19.4979983 18.7771393,19.4986445 L28.1736177,28.1252197 C28.5651376,28.4483124 28.4183176,29.126807 27.7331577,30.1607037 C27.3906698,30.6746931 27.0262259,31.1740009 26.6408171,31.6572691 C26.2949745,32.092798 25.9178103,32.538989 25.5093245,32.9958421 C25.3710204,33.1504998 25.2313731,33.3039746 25.0903982,33.4562492 C24.7093987,33.8687561 24.3194186,34.2730399 23.9207324,34.6688161 C23.52856,35.0571736 23.151722,35.4109601 22.7902186,35.7301757 C22.5821032,35.9137171 22.3699797,36.0927529 22.1539987,36.2671557 C22.0498888,36.3512231 21.944159,36.4333037 21.8368676,36.5133524 C21.1588856,37.0186693 20.7915094,37.1304594 20.734739,36.8487226 Z" id="Shape"></path>
                </g>
                <path d="M1.2,49.700288 L67.7,49.700288" id="Line" stroke="#4A4A4A" stroke-width="3" stroke-linecap="square"></path>
                <path d="M45.5,1.5 L45.5,68" id="Line-2" stroke="#4A4A4A" stroke-width="3" stroke-linecap="square"></path>
            </g>
        </g>
    </g>
</svg>