<svg viewBox="0 0 495 74" xmlns="http://www.w3.org/2000/svg">
    <g id="Page-1" stroke="none" stroke-width="1" fill="none" fill-rule="evenodd">
        <g id="Logo" transform="translate(1.000000, 0.500000)">
            <g id="Logo-icon-only" transform="translate(0.000000, 3.500000)">
                <g id="saved-place-mark-day" fill="#dfa513" fill-rule="nonzero" stroke="#efdba7">
                    <path d="M36.7870561,20.5648504 L19.6580592,17.9477996 C19.6053264,17.9463473 19.5549089,17.9260322 19.5161332,17.8906122 C19.463278,17.8466715 19.4136855,17.7768835 19.3673556,17.6812481 C19.3482972,17.6416257 19.3309887,17.6012008 19.3154792,17.5600883 C19.3050386,17.5327399 19.2958932,17.5049236 19.2880728,17.4767304 C19.2378278,17.2925676 19.276001,17.1672076 19.4025924,17.1006505 C19.4217482,17.0906119 19.4417205,17.0821819 19.4622992,17.0754493 L30.5227372,10.7751416 C30.9795105,10.581286 31.6157304,10.9528426 32.4313969,11.8898114 C32.8364307,12.3581525 33.2157725,12.8476968 33.5677835,13.3563292 C33.9266768,13.8713389 34.2823074,14.4319048 34.6346753,15.0380267 C34.7003608,15.1513291 34.7652893,15.2650602 34.8294565,15.3792126 C35.6124963,16.7685112 36.2160896,17.9801088 36.6402362,19.0140055 C37.0004345,19.8921714 37.0901578,20.3971653 36.9094061,20.5289871 C36.8736814,20.5538712 36.8307027,20.5664691 36.7870561,20.5648504 Z M16.2322598,19.789428 L10.8488608,31.3238374 C10.6531008,31.7115486 9.93531425,31.7438579 8.69550113,31.4207652 C8.00309718,31.238149 7.32062642,31.0204205 6.6507883,30.768441 C6.00107595,30.5251218 5.36081632,30.2577359 4.73136184,29.966848 C3.60247937,29.4466688 2.61095515,28.9371516 1.75678917,28.4382965 C1.55553064,28.3209083 1.35615688,28.2003797 1.15874247,28.0767557 C0.212569309,27.4829114 -0.154154359,27.1158781 0.0585714698,26.9756558 C0.0661147141,26.9706618 0.0739598045,26.96613 0.0820626656,26.9620859 L15.3513399,19.2078611 C15.4071243,19.1513705 15.4839649,19.1201619 15.5637395,19.1215953 C15.6596619,19.1215953 15.7718976,19.158751 15.9004467,19.2330623 C15.9132887,19.2406255 15.9260146,19.2483806 15.9386198,19.256325 C16.1924553,19.4133481 16.2919666,19.5855565 16.2371538,19.7729502 C16.2356383,19.7784759 16.2340066,19.7839697 16.2322598,19.789428 L16.2322598,19.789428 Z M17.3089396,15.5246043 L14.7640601,3.11784457 C14.7606846,3.09018599 14.7590502,3.06234624 14.7591661,3.03448665 C14.7591661,2.56341749 15.2697733,2.1337042 16.2909878,1.74534677 C16.3202893,1.73419858 16.3496538,1.72321326 16.3790798,1.71239132 C16.9125113,1.51772126 17.4531962,1.34312609 17.9999723,1.18898114 C18.5598458,1.02937335 19.1575662,0.878489055 19.7931336,0.736328266 C20.0087312,0.688352235 20.2247272,0.642148388 20.441099,0.597721497 C20.9963101,0.482412795 21.554037,0.37932084 22.1138679,0.288521782 C22.9928302,0.147007179 23.789247,0.05621813 24.5031183,0.0161546351 C25.6450515,-0.0484639052 26.1507647,0.0807731753 26.0202581,0.403865877 L18.2877394,15.5246043 C18.2303165,15.6964896 18.0825177,15.7921251 17.8443431,15.8115106 C17.8127622,15.81409 17.7810876,15.8153835 17.7493995,15.8153877 C17.4668526,15.8153877 17.3203589,15.7252449 17.3099184,15.5449591 C17.3094021,15.5381845 17.3090757,15.5313969 17.3089396,15.5246043 Z M15.15558,17.2693049 L2.33330227,15.8153877 C2.16703414,15.7864894 2.02146105,15.6879115 1.93395194,15.5449591 C1.74210717,15.2703303 1.61943093,14.7905377 1.5659232,14.1055812 C1.55974772,14.0293984 1.55452705,13.9531426 1.5502624,13.8768315 C1.48500908,12.6490793 1.5502624,11.243626 1.74602237,9.66047177 C1.89414741,8.4637364 2.07000511,7.4146544 2.27359548,6.51322577 C2.33605807,6.23610327 2.40491836,5.96043299 2.48012224,5.68643154 C2.76266912,4.66093531 2.99986495,4.21829831 3.19170971,4.35852054 C3.19968921,4.36442024 3.20721414,4.3709 3.21422211,4.3779061 L15.4492199,16.3969546 C15.5797266,16.4615731 15.5960399,16.6392741 15.4981599,16.9300575 C15.4845621,16.97107 15.4692137,17.011493 15.4521563,17.0512173 C15.3699371,17.2399034 15.2772774,17.315184 15.1741772,17.2770591 C15.1678437,17.2748026 15.1616359,17.2722142 15.15558,17.2693049 L15.15558,17.2693049 Z M20.734739,36.8487226 L17.8962195,20.1771392 C17.8843889,20.1536733 17.8783506,20.1277622 17.8786011,20.1015355 C17.8786011,19.9897454 17.9826801,19.8498463 18.1908382,19.6818381 C18.2066792,19.6690568 18.2226673,19.6564553 18.2387994,19.6440362 C18.2742339,19.6165112 18.3104646,19.5900066 18.3474462,19.5645554 C18.5764854,19.4081786 18.7197164,19.3855621 18.7771393,19.496706 C18.7771429,19.4973521 18.7771429,19.4979983 18.7771393,19.4986445 L28.1736177,28.1252197 C28.5651376,28.4483124 28.4183176,29.126807 27.7331577,30.1607037 C27.3906698,30.6746931 27.0262259,31.1740009 26.6408171,31.6572691 C26.2949745,32.092798 25.9178103,32.538989 25.5093245,32.9958421 C25.3710204,33.1504998 25.2313731,33.3039746 25.0903982,33.4562492 C24.7093987,33.8687561 24.3194186,34.2730399 23.9207324,34.6688161 C23.52856,35.0571736 23.151722,35.4109601 22.7902186,35.7301757 C22.5821032,35.9137171 22.3699797,36.0927529 22.1539987,36.2671557 C22.0498888,36.3512231 21.944159,36.4333037 21.8368676,36.5133524 C21.1588856,37.0186693 20.7915094,37.1304594 20.734739,36.8487226 Z" id="Shape"></path>
                </g>
                <path d="M1.2,49.700288 L67.7,49.700288" id="Line" stroke="#f9f9f9" stroke-width="3" stroke-linecap="square"></path>
                <path d="M45.5,1.5 L45.5,68" id="Line-2" stroke="#f9f9f9" stroke-width="3" stroke-linecap="square"></path>
            </g>
            <g id="MyIdealMap400" transform="translate(84.000000, 0.000000)" fill="#f9f9f9" stroke="#f9f9f9" stroke-linecap="round" stroke-width="0.25">
                <path d="M0,54.75 L14.7011752,54.75 L14.7011752,51.903 L8.92310135,51.903 L8.92310135,12.629 C8.92310135,12.191 8.91091132,11.7165 8.88653126,11.2055 C8.86215121,10.6945 8.82558112,10.22 8.776821,9.782 C9.01818358,10.1431067 9.21785626,10.4297533 9.37583903,10.64194 C9.40733664,10.6841262 9.43927627,10.7259818 9.47165266,10.7675 C9.51908266,10.8284075 9.56565316,10.8899769 9.6113504,10.95219 C9.71472185,11.0933233 9.83442793,11.2636567 9.97046866,11.46319 C10.0362965,11.5594628 10.1016359,11.6560674 10.1664843,11.753 L32.6936582,41.026 L54.5625706,12.556 C54.7015955,12.3651576 54.8410498,12.1746271 54.9809324,11.98441 C55.2018157,11.6841367 55.4036826,11.4123333 55.586533,11.169 C55.7879123,10.9013333 56.0122088,10.5991133 56.2594226,10.26234 C56.3767417,10.1024415 56.4937661,9.94232788 56.6104955,9.782 C56.5617353,10.366 56.5251653,10.8405 56.5007852,11.2055 C56.4927047,11.3302358 56.4863653,11.4550779 56.4817688,11.57999 C56.4700663,11.8729633 56.4642151,12.2163067 56.4642151,12.61002 C56.4642137,12.6163467 56.4642137,12.6226733 56.4642151,12.629 L56.4642151,51.903 L50.9055618,51.903 L50.9055618,54.75 L65.606737,54.75 L65.606737,51.903 L59.4629623,51.903 L59.4629623,6.497 L65.3873165,6.497 L65.3873165,3.65 L57.7075981,3.65 C53.5142281,9.052 49.3452381,14.4661667 45.2006282,19.8925 C41.0560182,25.3188333 36.8870283,30.733 32.6936582,36.135 C29.0854096,31.5116667 25.08708,26.3408333 20.6986695,20.6225 C16.310259,14.9041667 11.9706086,9.24666667 7.67971838,3.65 L0,3.65 L0,6.497 L5.92435418,6.497 L5.92435418,51.903 L0,51.903 L0,54.75 Z M264.694293,54.75 L279.395469,54.75 L279.395469,51.903 L273.617395,51.903 L273.617395,12.629 C273.617395,12.191 273.605205,11.7165 273.580825,11.2055 C273.556445,10.6945 273.519874,10.22 273.471114,9.782 C273.712477,10.1431067 273.91215,10.4297533 274.070132,10.64194 C274.10163,10.6841262 274.13357,10.7259818 274.165946,10.7675 C274.213376,10.8284075 274.259947,10.8899769 274.305644,10.95219 C274.409015,11.0933233 274.528721,11.2636567 274.664762,11.46319 C274.73059,11.5594628 274.795929,11.6560674 274.860778,11.753 L297.387952,41.026 L319.256864,12.556 C319.395889,12.3651576 319.535343,12.1746271 319.675226,11.98441 C319.896109,11.6841367 320.097976,11.4123333 320.280826,11.169 C320.482206,10.9013333 320.706502,10.5991133 320.953716,10.26234 C321.071035,10.1024415 321.18806,9.94232788 321.304789,9.782 C321.256029,10.366 321.219459,10.8405 321.195079,11.2055 C321.186998,11.3302358 321.180659,11.4550779 321.176062,11.57999 C321.16436,11.8729633 321.158508,12.2163067 321.158508,12.61002 C321.158507,12.6163467 321.158507,12.6226733 321.158508,12.629 L321.158508,51.903 L315.599855,51.903 L315.599855,54.75 L330.30103,54.75 L330.30103,51.903 L324.157256,51.903 L324.157256,6.497 L330.08161,6.497 L330.08161,3.65 L322.401891,3.65 C318.208521,9.052 314.039531,14.4661667 309.894922,19.8925 C305.750312,25.3188333 301.581322,30.733 297.387952,36.135 C293.779703,31.5116667 289.781373,26.3408333 285.392963,20.6225 C281.004552,14.9041667 276.664902,9.24666667 272.374012,3.65 L264.694293,3.65 L264.694293,6.497 L270.618648,6.497 L270.618648,51.903 L264.694293,51.903 L264.694293,54.75 Z M74.8955392,73 L89.011593,73 L89.011593,70.153 L84.3306218,70.153 C87.6463097,63.437 90.9619977,56.7818333 94.2776856,50.1875 C97.5933735,43.5931667 100.909061,36.938 104.224749,30.222 L109.563982,30.222 L109.563982,27.375 L96.7644515,27.375 L96.7644515,30.222 L101.006582,30.222 L95.4844985,41.245 C93.6559941,44.895 91.9372,48.4963333 90.3281161,52.049 C88.6215121,48.399 86.8539578,44.7733333 85.0254535,41.172 C83.1969491,37.5706667 81.3806347,33.9206667 79.5765104,30.222 L84.2574816,30.222 L84.2574816,27.375 L70.7265492,27.375 L70.7265492,30.222 L76.3583427,30.222 C78.4062676,34.4073333 80.4541925,38.544 82.5021174,42.632 C84.5500423,46.72 86.6223473,50.808 88.7190323,54.896 C87.4512693,57.4266667 86.1713162,59.9573333 84.8791731,62.488 C83.58703,65.0186667 82.331457,67.5736667 81.1124541,70.153 L74.8955392,70.153 L74.8955392,73 Z M160.615824,54.75 L168.734384,54.75 L168.734384,51.903 L163.322011,51.903 L163.322011,0 L155.130311,0 L155.130311,2.847 L160.323264,2.847 L160.323264,27.083 L160.323264,30.295 C160.323264,31.1223333 160.347644,32.193 160.396404,33.507 C160.079496,32.8403632 159.698606,32.205948 159.259074,31.61265 C159.130441,31.4378709 158.99753,31.2662693 158.86046,31.098 C158.504479,30.6645224 158.111193,30.2629522 157.685098,29.89788 C157.269153,29.5408491 156.831157,29.2102386 156.373694,28.908 C155.643354,28.4600546 154.872783,28.0810061 154.071973,27.77577 C153.686325,27.627577 153.295237,27.4938928 152.899536,27.375 C151.607393,26.9856667 150.27868,26.791 148.913396,26.791 C147.561887,26.7834531 146.215893,26.9635414 144.914092,27.32609 C144.344908,27.4871261 143.787284,27.6863837 143.245033,27.9225 C141.514049,28.6768333 139.990295,29.6866667 138.673772,30.952 C137.357249,32.2173333 136.333286,33.726 135.601884,35.478 C134.869317,37.2358561 134.496304,39.1221653 134.504782,41.026 C134.496593,42.4339711 134.695962,43.8354867 135.096486,45.18554 C135.238706,45.6574617 135.407439,46.1210155 135.601884,46.574 C136.333286,48.2773333 137.357249,49.786 138.673772,51.1 C139.990295,52.414 141.514049,53.436 143.245033,54.166 C144.730231,54.7851055 146.31075,55.1455899 147.917959,55.2318 C148.249403,55.2514788 148.581366,55.2612165 148.913396,55.261 C149.971271,55.2651209 151.026487,55.1549798 152.060618,54.9325 C152.392199,54.8600604 152.720845,54.7748298 153.045816,54.677 C153.921068,54.4169262 154.76771,54.0691351 155.572809,53.63894 C155.89718,53.4643821 156.213244,53.2748641 156.519975,53.071 C157.495177,52.4383333 158.336289,51.7205 159.043311,50.9175 C159.435946,50.4754227 159.785204,49.9967855 160.086289,49.48816 C160.29142,49.1396753 160.468489,48.7754763 160.615824,48.399 L160.615824,50.1145 L160.615824,51.757 L160.615824,54.75 Z M375.355378,70.153 L375.355378,73 L389.471432,73 L389.471432,70.153 L383.254517,70.153 L383.254517,51.465 C383.254199,51.0289692 383.242737,50.5930174 383.220141,50.15757 C383.219421,50.1432128 383.21869,50.1288561 383.217947,50.1145 C383.193567,49.6521667 383.181377,49.1776667 383.181377,48.691 C383.511334,49.5288012 383.976843,50.306862 384.559338,50.99415 C384.599331,51.0420036 384.639804,51.089456 384.68075,51.1365 C385.070929,51.5798004 385.500825,51.9866374 385.965092,52.35195 C386.360747,52.6642866 386.774459,52.9531349 387.204087,53.217 C388.179289,53.8983333 389.300772,54.4215 390.568535,54.7865 C391.836298,55.1515 393.201581,55.334 394.664384,55.334 C396.614789,55.334 398.467673,54.9568333 400.223038,54.2025 C401.978402,53.4481667 403.514346,52.4383333 404.830869,51.173 C406.147392,49.9076667 407.171354,48.399 407.902756,46.647 C408.635324,44.8891439 409.008336,43.0028347 408.999859,41.099 C408.999859,39.1523333 408.634158,37.3151667 407.902756,35.5875 C407.171354,33.8598333 406.147392,32.339 404.830869,31.025 C403.514346,29.711 401.978402,28.689 400.223038,27.959 C398.467673,27.229 396.614789,26.864 394.664384,26.864 C391.738777,26.864 389.252011,27.5696667 387.204087,28.981 C386.354918,29.5586089 385.571133,30.2265844 384.866527,30.97317 C384.042654,31.8442349 383.373811,32.8492803 382.888816,33.945 C382.888816,32.8743333 382.852246,31.7915 382.779106,30.6965 C382.705966,29.6015 382.669396,28.4943333 382.669396,27.375 L374.770257,27.375 L374.770257,30.222 L380.25577,30.222 L380.25577,70.153 L375.355378,70.153 Z M114.683794,54.75 L129.38497,54.75 L129.38497,51.903 L123.387475,51.903 L123.387475,6.497 L129.38497,6.497 L129.38497,3.65 L114.683794,3.65 L114.683794,6.497 L120.388728,6.497 L120.388728,51.903 L114.683794,51.903 L114.683794,54.75 Z M245.458427,54.75 L259.574481,54.75 L259.574481,51.903 L253.869547,51.903 L253.869547,0 L245.677848,0 L245.677848,2.847 L250.8708,2.847 L250.8708,51.903 L245.458427,51.903 L245.458427,54.75 Z M232.220056,54.75 L240.338615,54.75 L240.338615,51.903 L234.926242,51.903 L234.926242,27.375 L232.512616,27.375 C232.415096,28.4456667 232.341956,29.5285 232.293196,30.6235 C232.257158,31.4238824 232.234238,32.2247995 232.224444,33.02593 C232.221472,33.2836093 232.220009,33.5413037 232.220056,33.799 C231.663442,32.5464583 230.86745,31.4142698 229.876644,30.46582 C229.268051,29.8770435 228.608161,29.3434986 227.904785,28.8715 C226.422219,27.8796626 224.736124,27.2314099 222.970018,26.97423 C222.158556,26.8497372 221.338616,26.7884755 220.517628,26.791 C219.166119,26.7834531 217.820124,26.9635414 216.518323,27.32609 C215.94914,27.4871261 215.391515,27.6863837 214.849264,27.9225 C213.11828,28.6768333 211.594526,29.6866667 210.278003,30.952 C208.96148,32.266 207.937518,33.799 207.206116,35.551 C206.474714,37.303 206.109013,39.128 206.109013,41.026 C206.100824,42.4339711 206.300193,43.8354867 206.700717,45.18554 C206.842937,45.6574617 207.01167,46.1210155 207.206116,46.574 C207.937518,48.2773333 208.96148,49.786 210.278003,51.1 C211.594526,52.414 213.11828,53.436 214.849264,54.166 C216.334463,54.7851055 217.914981,55.1455899 219.52219,55.2318 C219.853635,55.2514788 220.185597,55.2612165 220.517628,55.261 C221.575502,55.2651209 222.630718,55.1549798 223.664849,54.9325 C223.996431,54.8600604 224.325076,54.7748298 224.650048,54.677 C225.525299,54.4169262 226.371942,54.0691351 227.177041,53.63894 C227.501412,53.4643821 227.817475,53.2748641 228.124206,53.071 C229.099408,52.4383333 229.94052,51.7205 230.647542,50.9175 C231.040178,50.4754227 231.389436,49.9967855 231.690521,49.48816 C231.895651,49.1396753 232.07272,48.7754763 232.220056,48.399 L232.220056,50.1145 L232.220056,51.757 L232.220056,54.75 Z M361.531885,54.75 L369.650445,54.75 L369.650445,51.903 L364.238072,51.903 L364.238072,27.375 L361.824446,27.375 C361.726926,28.4456667 361.653785,29.5285 361.605025,30.6235 C361.568987,31.4238824 361.546067,32.2247995 361.536273,33.02593 C361.533302,33.2836093 361.531839,33.5413037 361.531885,33.799 C360.975271,32.5464583 360.179279,31.4142698 359.188474,30.46582 C358.57988,29.8770435 357.91999,29.3434986 357.216615,28.8715 C355.734048,27.8796626 354.047954,27.2314099 352.281847,26.97423 C351.470385,26.8497372 350.650445,26.7884755 349.829457,26.791 C348.477948,26.7834531 347.131954,26.9635414 345.830152,27.32609 C345.260969,27.4871261 344.703345,27.6863837 344.161094,27.9225 C342.430109,28.6768333 340.906356,29.6866667 339.589833,30.952 C338.273309,32.266 337.249347,33.799 336.517945,35.551 C335.786543,37.303 335.420843,39.128 335.420843,41.026 C335.412654,42.4339711 335.612022,43.8354867 336.012547,45.18554 C336.154767,45.6574617 336.3235,46.1210155 336.517945,46.574 C337.249347,48.2773333 338.273309,49.786 339.589833,51.1 C340.906356,52.414 342.430109,53.436 344.161094,54.166 C345.646292,54.7851055 347.226811,55.1455899 348.834019,55.2318 C349.165464,55.2514788 349.497426,55.2612165 349.829457,55.261 C350.887332,55.2651209 351.942547,55.1549798 352.976679,54.9325 C353.30826,54.8600604 353.636906,54.7748298 353.961877,54.677 C354.837129,54.4169262 355.683771,54.0691351 356.48887,53.63894 C356.813241,53.4643821 357.129304,53.2748641 357.436035,53.071 C358.411238,52.4383333 359.25235,51.7205 359.959371,50.9175 C360.352007,50.4754227 360.701265,49.9967855 361.00235,49.48816 C361.207481,49.1396753 361.38455,48.7754763 361.531885,48.399 L361.531885,50.1145 L361.531885,51.757 L361.531885,54.75 Z M197.771033,51.465 L195.942529,49.275 C194.918566,50.2483333 193.748324,51.0026667 192.4318,51.538 C191.172281,52.0451018 189.829951,52.3163197 188.471991,52.33808 C188.377898,52.3401033 188.283785,52.3410767 188.18967,52.341 C186.789236,52.3528911 185.398417,52.1092036 184.085775,51.62195 C183.370817,51.3513065 182.686958,51.005015 182.045896,50.589 C180.241771,49.421 178.900868,47.888 178.023186,45.99 C181.826475,44.4326667 185.617574,42.924 189.396483,41.464 C193.175392,40.004 196.966491,38.5196667 200.76978,37.011 C200.282179,35.551 199.648298,34.2005 198.868136,32.9595 C198.319903,32.0795569 197.677364,31.2617672 196.951863,30.52057 C196.699116,30.2640048 196.435575,30.0182604 196.161949,29.784 C195.089227,28.8106667 193.870224,28.0685 192.504941,27.5575 C191.139657,27.0465 189.701234,26.791 188.18967,26.791 C186.504131,26.7798002 184.830493,27.0733745 183.249783,27.65751 C183.029027,27.7400367 182.810504,27.8283978 182.594447,27.9225 C180.863463,28.6768333 179.339709,29.6866667 178.023186,30.952 C176.706663,32.2173333 175.6827,33.726 174.951299,35.478 C174.218731,37.2358561 173.845718,39.1221653 173.854196,41.026 C173.846007,42.4339711 174.045376,43.8354867 174.4459,45.18554 C174.58812,45.6574617 174.756853,46.1210155 174.951299,46.574 C175.6827,48.2773333 176.706663,49.786 178.023186,51.1 C179.339709,52.414 180.863463,53.436 182.594447,54.166 C184.249988,54.8572629 186.022319,55.2274013 187.816655,55.25662 C187.940973,55.2595096 188.065319,55.2609697 188.18967,55.261 C189.444105,55.2678914 190.693705,55.1053299 191.90446,54.77774 C192.432883,54.6324525 192.951113,54.4524806 193.455763,54.239 C195.064847,53.5576667 196.50327,52.633 197.771033,51.465 Z M224.519127,30.40012 C223.236723,29.9356481 221.881829,29.7023143 220.517628,29.711 C220.286881,29.7110122 220.056172,29.716854 219.825722,29.72852 C218.48068,29.7879189 217.155968,30.0783326 215.909797,30.587 C214.495753,31.171 213.30113,31.9983333 212.325928,33.069 C211.301966,34.091 210.509614,35.2833333 209.948872,36.646 C209.896219,36.7737655 209.845987,36.9025118 209.798204,37.03217 C209.33284,38.3121154 209.099058,39.6644131 209.10776,41.026 C209.10776,42.6806667 209.424701,44.2136667 210.058583,45.625 C210.692464,47.0363333 211.570146,48.253 212.691629,49.275 C213.715591,50.2483333 214.885834,51.0026667 216.202357,51.538 C216.657911,51.7229473 217.125946,51.8756515 217.602992,51.99498 C218.556539,52.2297558 219.535508,52.3459772 220.517628,52.341 C220.566389,52.3410315 220.61515,52.3407882 220.663908,52.34027 C222.118616,52.3333595 223.558559,52.0486486 224.906038,51.5015 C226.271321,50.9418333 227.465944,50.151 228.489907,49.129 C229.562629,48.107 230.403741,46.9025 231.013243,45.5155 C231.108331,45.2990003 231.196148,45.0793913 231.276547,44.85704 C231.715656,43.6276718 231.935957,42.3311254 231.927495,41.026 C231.927473,40.9634606 231.926986,40.9009222 231.926032,40.83839 C231.914794,39.3577432 231.604335,37.8945826 231.013243,36.5365 C230.403741,35.1495 229.587009,33.945 228.563047,32.923 C227.490324,31.901 226.271321,31.1101667 224.906038,30.5505 C224.778027,30.4979476 224.649034,30.447812 224.519127,30.40012 L224.519127,30.40012 Z M353.830956,30.40012 C352.548553,29.9356481 351.193659,29.7023143 349.829457,29.711 C349.598711,29.7110122 349.368001,29.716854 349.137551,29.72852 C347.792509,29.7879189 346.467797,30.0783326 345.221626,30.587 C343.807583,31.171 342.61296,31.9983333 341.637757,33.069 C340.613795,34.091 339.821443,35.2833333 339.260702,36.646 C339.208048,36.7737655 339.157817,36.9025118 339.110033,37.03217 C338.644669,38.3121154 338.410887,39.6644131 338.41959,41.026 C338.41959,42.6806667 338.736531,44.2136667 339.370412,45.625 C340.004294,47.0363333 340.881976,48.253 342.003458,49.275 C343.027421,50.2483333 344.197664,51.0026667 345.514187,51.538 C345.96974,51.7229473 346.437776,51.8756515 346.914821,51.99498 C347.868368,52.2297558 348.847338,52.3459772 349.829457,52.341 C349.878218,52.3410315 349.926979,52.3407882 349.975737,52.34027 C351.430446,52.3333595 352.870388,52.0486486 354.217868,51.5015 C355.583151,50.9418333 356.777774,50.151 357.801736,49.129 C358.874459,48.107 359.715571,46.9025 360.325072,45.5155 C360.420161,45.2990003 360.507978,45.0793913 360.588377,44.85704 C361.027485,43.6276718 361.247786,42.3311254 361.239324,41.026 C361.239303,40.9634606 361.238815,40.9009222 361.237862,40.83839 C361.226623,39.3577432 360.916165,37.8945826 360.325072,36.5365 C359.715571,35.1495 358.898839,33.945 357.874876,32.923 C356.802154,31.901 355.583151,31.1101667 354.217868,30.5505 C354.089857,30.4979476 353.960863,30.447812 353.830956,30.40012 L353.830956,30.40012 Z M148.913396,29.711 C150.42496,29.711 151.863383,29.9786667 153.228667,30.514 C154.59395,31.0493333 155.788573,31.8036667 156.812535,32.777 C157.85865,33.7806871 158.70209,34.9753968 159.297107,36.29633 C159.322614,36.3518747 159.347726,36.4075995 159.372441,36.4635 C160.006323,37.8991667 160.323264,39.42 160.323264,41.026 C160.323264,42.632 160.018513,44.1406667 159.409011,45.552 C158.939795,46.6585845 158.282047,47.6756704 157.464946,48.55814 C157.279822,48.7563144 157.086566,48.9467637 156.885675,49.129 C155.812953,50.151 154.60614,50.9418333 153.265237,51.5015 C151.924334,52.0611667 150.47372,52.341 148.913396,52.341 C147.95045,52.3459843 146.990364,52.2359454 146.053615,52.01323 C145.519202,51.8840331 144.995842,51.7129248 144.488416,51.5015 C143.147513,50.9418333 141.96508,50.151 140.941117,49.129 C139.904488,48.1818342 139.075059,47.0311598 138.504818,45.7491 C138.475202,45.6836672 138.446189,45.6179644 138.417781,45.552 C137.80828,44.1406667 137.503529,42.632 137.503529,41.026 C137.503529,39.4686667 137.79609,37.9965 138.381211,36.6095 C138.966333,35.2225 139.770874,34.018 140.794837,32.996 C141.818799,31.974 143.013422,31.171 144.378705,30.587 C145.743989,30.003 147.255552,29.711 148.913396,29.711 Z M394.664384,29.784 C396.175948,29.784 397.614371,30.0638333 398.979655,30.6235 C400.052011,31.0568719 401.058406,31.6377326 401.969625,32.34922 C402.1732,32.509405 402.37128,32.6764274 402.563523,32.85 C403.636246,33.872 404.477358,35.0886667 405.086859,36.5 C405.636245,37.7862427 405.942491,39.162824 405.99014,40.56026 C405.997473,40.7397467 406.001131,40.9193642 406.001111,41.099 C406.001111,42.705 405.696361,44.2136667 405.086859,45.625 C404.477358,47.0363333 403.636246,48.253 402.563523,49.275 C401.539561,50.2483333 400.344938,51.0148333 398.979655,51.5745 C397.614371,52.1341667 396.175948,52.414 394.664384,52.414 C393.602905,52.4195804 392.545285,52.2860665 391.518625,52.01688 C391.070985,51.89771 390.631481,51.7499454 390.202834,51.5745 C388.83755,51.0148333 387.642928,50.2483333 386.618965,49.275 C385.546243,48.2043333 384.717321,46.9755 384.132199,45.5885 C383.582382,44.2714521 383.286117,42.8628007 383.258905,41.43626 C383.255989,41.3238635 383.254526,41.2114342 383.254517,41.099 C383.254517,39.5416667 383.534888,38.0695 384.095629,36.6825 C384.65637,35.2955 385.448722,34.091 386.472685,33.069 C387.496647,32.047 388.70346,31.244 390.093123,30.66 C391.243575,30.1825505 392.465102,29.8979177 393.708442,29.81758 C394.026591,29.7950885 394.345439,29.7838881 394.664384,29.784 L394.664384,29.784 Z M188.18967,29.711 C190.091315,29.711 191.810109,30.2341667 193.346053,31.2805 C194.881996,32.3268333 196.088809,33.6773333 196.966491,35.332 C193.650803,36.646 190.347305,37.9478333 187.055998,39.2375 C183.76469,40.5271667 180.461192,41.829 177.145504,43.143 C176.987992,42.3887765 176.907856,41.6205022 176.906336,40.85007 C176.906324,39.9867531 177.011192,39.1266196 177.218644,38.2885 C177.608725,36.7068333 178.291367,35.2833333 179.266569,34.018 C180.290531,32.704 181.570484,31.6576667 183.106428,30.879 C184.519558,30.1693138 186.070299,29.7745256 187.651359,29.72195 C187.8307,29.7145575 188.010176,29.7109067 188.18967,29.711 L188.18967,29.711 Z" id="Shape"></path>
            </g>
        </g>
    </g>
</svg>