<!-- obtained by converting the asterisk (*) of Cormorant 700 into an SVG file with https://danmarshall.github.io/google-font-to-svg-path/ -->
<!-- and by trimming unnecessary code -->
<svg 
  fill="#f6d410" 
  height="40.173" 
  stroke="#463c01" 
  viewBox="-1 -1 39.802 40.173" 
  width="39.802" 
  xmlns="http://www.w3.org/2000/svg"
>
  <path d="M 37.584 21.217 L 20.084 18.517 A 0.223 0.223 0 0 1 19.939 18.458 Q 19.858 18.39 19.787 18.242 A 1.561 1.561 0 0 1 19.734 18.117 A 0.969 0.969 0 0 1 19.706 18.031 Q 19.629 17.746 19.823 17.643 A 0.396 0.396 0 0 1 19.884 17.617 L 31.184 11.117 Q 31.884 10.817 33.134 12.267 A 17.768 17.768 0 0 1 34.295 13.78 Q 34.845 14.577 35.385 15.515 A 30.585 30.585 0 0 1 35.584 15.867 Q 36.784 18.017 37.434 19.617 Q 37.986 20.976 37.709 21.18 A 0.204 0.204 0 0 1 37.584 21.217 Z M 16.584 20.417 L 11.084 32.317 Q 10.784 32.917 8.884 32.417 A 21.37 21.37 0 0 1 6.795 31.744 A 28.357 28.357 0 0 1 4.834 30.917 Q 3.104 30.112 1.795 29.34 A 22.664 22.664 0 0 1 1.184 28.967 Q -0.266 28.048 0.06 27.831 A 0.227 0.227 0 0 1 0.084 27.817 L 15.684 19.817 A 0.296 0.296 0 0 1 15.901 19.728 Q 16.048 19.728 16.245 19.843 A 1.514 1.514 0 0 1 16.284 19.867 Q 16.673 20.11 16.589 20.4 A 0.425 0.425 0 0 1 16.584 20.417 Z M 17.684 16.017 L 15.084 3.217 A 0.693 0.693 0 0 1 15.079 3.131 Q 15.079 2.402 16.644 1.801 A 8.575 8.575 0 0 1 16.734 1.767 A 23.005 23.005 0 0 1 18.39 1.227 Q 19.248 0.98 20.222 0.76 A 40.816 40.816 0 0 1 20.884 0.617 A 39.171 39.171 0 0 1 22.593 0.298 Q 23.94 0.079 25.034 0.017 Q 26.784 -0.083 26.584 0.417 L 18.684 16.017 Q 18.596 16.283 18.231 16.313 A 1.182 1.182 0 0 1 18.134 16.317 Q 17.701 16.317 17.685 16.038 A 0.379 0.379 0 0 1 17.684 16.017 Z M 15.484 17.817 L 2.384 16.317 A 0.598 0.598 0 0 1 1.976 16.038 Q 1.682 15.613 1.6 14.553 A 9.532 9.532 0 0 1 1.584 14.317 Q 1.484 12.417 1.784 9.967 Q 2.011 8.115 2.323 6.72 A 19.196 19.196 0 0 1 2.534 5.867 Q 2.967 4.28 3.261 4.497 A 0.205 0.205 0 0 1 3.284 4.517 L 15.784 16.917 Q 15.984 17.017 15.834 17.467 A 1.575 1.575 0 0 1 15.787 17.592 Q 15.661 17.884 15.503 17.825 A 0.194 0.194 0 0 1 15.484 17.817 Z M 21.184 38.017 L 18.284 20.817 A 0.171 0.171 0 0 1 18.266 20.739 Q 18.266 20.566 18.585 20.306 A 2.737 2.737 0 0 1 18.634 20.267 A 2.387 2.387 0 0 1 18.745 20.185 Q 19.096 19.943 19.184 20.115 A 0.181 0.181 0 0 1 19.184 20.117 L 28.784 29.017 Q 29.384 29.517 28.334 31.117 A 22.37 22.37 0 0 1 27.218 32.661 Q 26.688 33.335 26.062 34.042 A 37.103 37.103 0 0 1 25.634 34.517 A 39.929 39.929 0 0 1 24.439 35.768 Q 23.838 36.369 23.284 36.863 A 19.629 19.629 0 0 1 22.634 37.417 A 10.725 10.725 0 0 1 22.31 37.671 Q 21.271 38.453 21.184 38.017 Z" />
</svg>